<?xml version="1.0" encoding="utf-8"?>
<!-- Generator: Adobe Illustrator 22.1.0, SVG Export Plug-In . SVG Version: 6.00 Build 0)  -->
<svg version="1.1" id="图层_1" xmlns="http://www.w3.org/2000/svg" xmlns:xlink="http://www.w3.org/1999/xlink" x="0px" y="0px"
	 viewBox="0 0 200 400" style="enable-background:new 0 0 200 400;" xml:space="preserve">
<style type="text/css">
	.st0{fill:#FFFFFF;}
</style>
<path class="st0" d="M99.8,51.5c13.9,0,25.1,11,25.1,24.6s-11.2,24.6-25.1,24.6s-25.1-11-25.1-24.6S86,51.5,99.8,51.5L99.8,51.5z
	 M89,107.5H111c18.9,0,34.2,12.4,34.2,31v2.2c0,7.4-15.3,10.9-34.2,10.9H89c-18.9,0-34.2-3.3-34.2-10.9v-2.2
	C54.8,120,70.1,107.5,89,107.5L89,107.5z"/>
<path class="st0" d="M142.3,280.6l-4.1-4.1l9.7-9.7c2.8-2.8,2.8-7.4,0-10.2l-4.6-4.6c-2.9-2.7-7.5-2.7-10.3,0.1l-39,39
	c-11.5-5.5-25.6-3.5-35.1,6.1c-12.1,12.1-12.1,31.7,0,43.7c12.1,12.1,31.7,12.1,43.7,0c9.5-9.5,11.5-23.6,6.1-35.1l14.8-14.8
	l9.4,9.4c2.8,2.8,7.4,2.8,10.2,0l4.3-4.3c2.8-2.8,2.8-7.4,0-10.2L142.3,280.6z M88.3,326.4c-4.1,4.1-10.7,4.1-14.8,0
	c-4.1-4.1-4.1-10.7,0-14.8c4.1-4.1,10.7-4.1,14.8,0C92.3,315.8,92.3,322.3,88.3,326.4z"/>
</svg>
