<?xml version="1.0" encoding="utf-8"?>
<!-- Generator: Adobe Illustrator 22.1.0, SVG Export Plug-In . SVG Version: 6.00 Build 0)  -->
<svg version="1.1" id="图层_1" xmlns="http://www.w3.org/2000/svg" xmlns:xlink="http://www.w3.org/1999/xlink" x="0px" y="0px"
	 viewBox="0 0 605.7 133.2" style="enable-background:new 0 0 605.7 133.2;" xml:space="preserve">
<style type="text/css">
	.st0{fill:#FFFFFF;}
</style>
<title>logo-china-eastern</title>
<path class="st0" d="M162.6,47.5C107.9,49,55,61.4,50,79c-0.4,1.6-0.6,3.2-0.6,4.8c0,17.3,36.2,23.3,75.4,28.1
	c0.7,0.1,0.6-0.4,0.4-0.8s-0.7-1.3-1.1-2c-0.2-0.3-0.5-0.6-0.9-0.6C101.8,103,80,95,80,87.6c0-14,36.5-28,78-34.3
	c1.1-0.1,2.1-0.6,2.9-1.2l4.8-3.8c0.7-0.6,0.5-0.8,0.2-0.8L162.6,47.5z"/>
<path class="st0" d="M102.1,132.4c-28.4-7.1-56.6-31-52.1-53.1c6.5-32.2,49.8-63.5,104-78.1c1.2-0.4,1.7-1.2,0.1-1.2H80.2
	C67.4,0,64.6,1.7,59.6,8.4c-2.6,3.6-24.7,34-34.7,47.8c-1.6,2.3-4.3,3.6-7.1,3.4H0l0,0c21.1,59.6,43.8,73.7,66.5,73.7h35.9
	C102.8,133.2,103.4,132.7,102.1,132.4z"/>
<path class="st0" d="M300.6,22.9c-0.5,0.7-0.8,1.5-0.6,2.4v0.1c0,0,0.1,0.7,0.1,1h-17.2c-1.7,0-3.1,1.3-3.3,3c0,1.7,1.4,3,3.1,3
	h18.1c0.9,6,2.4,11.8,4.4,17.5c-2.4,3.7-4.5,6.6-5.5,7.7c-0.5,0.9-0.8,1.9-0.8,2.9c0,0.3,0,0.7,0.2,1c0.4,0.8,1.2,1.4,2.1,1.5
	c1.1,0.1,2.1-0.3,2.9-1.1c0.8-0.8,1.5-1.8,2-2.8c0,0,1.5-2.3,1.9-2.9c1,2,2.1,3.8,3.3,5.7c0.6,0.9,1.6,1.5,2.6,1.5
	c1.2,0,2.3-0.6,2.8-1.7l0.1-0.3c1.4-2.8,2.4-5.9,2.8-9l0,0c0.1-1-0.1-2-0.8-2.8c-0.5-0.5-1.2-0.9-1.9-0.9c-1.3-0.1-2.5,0.8-2.8,2.1
	c0,0-0.5,2.2-0.8,3.4c-0.4-0.9-1.5-3.3-1.5-3.5c2.6-4.2,4.6-8.7,6-13.4l0.1-1.1c0-0.8-0.4-1.6-1-2.1c-0.6-0.5-1.4-0.8-2.2-0.8
	c-1.3,0.1-2.4,0.9-2.7,2.2c-0.8,2.6-1.8,5.2-3,7.7c-1-3.5-1.8-7.1-2.4-10.7h10c1.7,0,3-1.3,3-3s-1.3-3-3-3h-1.6c0-0.1,0-0.2,0-0.3
	c0-0.8-0.3-1.5-0.8-2.1l-0.4-0.4c-1.1-1.3-3.1-1.5-4.5-0.4c0,0,0,0,0,0c-0.4,0.3-0.6,0.8-0.6,1.3l0,0c0.1,0.7,0.3,1.3,0.8,1.8h-3.7
	c0-0.3-0.2-1.3-0.2-1.3c-0.2-2-1.2-3-3-3C302,22,301.2,22.3,300.6,22.9"/>
<path class="st0" d="M432.8,15.7c0,0,0,4.1,0,5h-22c-2.1,0-3.7,1.7-3.7,3.7c0,2.1,1.7,3.7,3.7,3.7l10.8-0.1c0,0.5,0,9.1,0,9.1
	c-0.3,9.9-3.9,19.4-10.2,27l-0.8,1c-0.9,0.7-1.4,1.8-1.4,2.9c0,2.1,1.7,3.7,3.7,3.7c1.2,0,2.3-0.5,3.1-1.3h0.1
	c2.6-2.1,11.4-10.4,13.1-29h23.7c0,3.8-0.1,8.3-0.3,13.7c-0.4,9.4-6.9,9.2-10,9h-0.2c-2.3-0.3-4.6-0.7-6.9-1.3l-1-0.1
	c-2.1,0-3.7,1.7-3.7,3.7c0,1.7,1.2,3.2,2.8,3.6c2.5,0.9,5,1.4,7.6,1.5h0.7c4.7,0.1,10,0.1,13.7-3.5c3.1-3.1,4.7-8.3,4.8-15.9
	c0.2-3.2,0.2-8.2,0.2-11.1c0-0.9,0-1.6,0-1.9c-0.1-2.8-2.3-5.1-5.2-5.1h-26v-6l33.3,0.1c2.1,0,3.7-1.7,3.7-3.7
	c0-2.1-1.7-3.7-3.7-3.7c0,0,0,0,0,0h-22.3c0-0.4,0-5.1,0-5.1c-0.2-2.1-2.1-3.7-4.2-3.6C434.5,12.2,432.9,13.8,432.8,15.7"/>
<path class="st0" d="M554,46.9c-2.1,0-3.7,1.7-3.7,3.7c0,2.1,1.7,3.7,3.7,3.7c0,0,0,0,0,0h18.5v9.5h-22.1c-2.1,0.1-3.6,1.9-3.5,3.9
	c0.1,1.9,1.6,3.4,3.5,3.5H602c2.1-0.1,3.6-1.9,3.5-3.9c-0.1-1.9-1.6-3.4-3.5-3.5h-21.8v-9.5h18.5c2.1,0,3.7-1.7,3.7-3.7
	c0-2.1-1.7-3.7-3.7-3.7c0,0,0,0,0,0"/>
<path class="st0" d="M572.5,15.8v2.5h-19.2c-2.9,0-5.1,2.3-5.2,5.2v7.6c0,2.1,1.7,3.7,3.7,3.7c2.1,0,3.7-1.7,3.7-3.7l0,0v-5.3h8.7
	c0,0.4,0.1,0.8,0.1,1.2c0,1-0.1,1.9-0.4,2.9c-1.1,3.8-4.9,6.4-11.4,7.8l-0.2,0.1c-1.9,0.2-3.3,1.7-3.3,3.6c0.1,2.1,1.8,3.8,3.9,3.8
	h0.4c14.5-1.3,18.3-8.9,19-15c0.1-1.4,0.2-2.8,0.2-4.2l0,0c0.4,0,6.9,0,7.3,0v13.5c0,2.8,2.2,5.1,5,5.1h11c3.2,0.1,6.2-1.4,8-4
	c0.4-0.7,0.6-1.5,0.7-2.3c0.2-1.2-0.4-2.3-1.5-2.8l-0.2-0.1c-1.3-0.8-2.8-0.6-4.3,0.8c-0.9,0.9-2.2,1.4-3.5,1.3h-6.4
	c-0.4,0-0.7-0.1-1-0.4c-0.3-0.3-0.4-0.6-0.3-1c0,0,0-9.8,0-10.3h10l-0.8,3c-0.1,0.3-0.1,0.6-0.1,0.9c0,0.7,0.2,1.3,0.5,1.9
	c0.5,0.8,1.4,1.5,2.3,1.7c2.1,0.4,4.2-0.9,4.8-2.9c0.1-0.2,1.5-4.1,1.5-6.4c0-3.7-1.8-5.5-5.4-5.5h-20.2v-2.4
	c-0.1-2.1-1.8-3.7-3.8-3.7c-2.1,0-3.7,1.7-3.7,3.7"/>
<path class="st0" d="M322.8,14.5L322.8,14.5H277c-2.8,0-5.1,2.4-5.1,5.2V66c0,2.8,2.3,5.2,5.1,5.2h45.8c2.9,0,5.2-2.3,5.2-5.2V19.7
	C327.9,16.9,325.6,14.5,322.8,14.5 M320.7,63.2c0.1,0.4-0.3,0.9-0.7,0.9c-0.1,0-0.2,0-0.2,0h-16.5h-23.6c-0.5,0-0.8-0.3-0.8-0.9
	V22.5c0-0.2,0.1-0.5,0.2-0.7c0.2-0.2,0.4-0.2,0.6-0.2l40.1,0c0.3,0,0.5,0.1,0.7,0.2c0.1,0.2,0.2,0.4,0.2,0.6L320.7,63.2z"/>
<path class="st0" d="M300.2,35.9c-0.4-1.1-1.4-1.7-2.6-1.8h-14.2c-0.8,0-1.6,0.4-2.1,1c-0.4,0.5-0.6,1.2-0.6,1.8v11.5l0.1,0.6
	c0.2,1.3,1.4,2.3,2.7,2.3h14.2l0.8-0.1c1.2-0.4,2-1.5,2-2.7V37C300.5,36.6,300.4,36.2,300.2,35.9 M294.9,39.8v5.8h-8.7v-5.8
	L294.9,39.8z"/>
<path class="st0" d="M295.4,52.5c-0.1,0-7.2,2.3-12.1,2.3c-1.8-0.2-3.4,1.2-3.6,3c0,0,0,0,0,0c0,0.7,0.3,1.5,0.8,2
	c0.7,0.8,1.7,1.2,2.7,1.3c5.1,0,10.1-0.9,14.8-2.8l0,0c1.6-0.7,2.9-2.5,2.2-4.3C299.1,51.2,295.5,52.5,295.4,52.5"/>
<path class="st0" d="M253.7,20.5L253.7,20.5h-19.9v-5.4c0-2.1-1.7-3.8-3.8-3.8c-2.1,0-3.8,1.7-3.8,3.8v5.4h-19.8
	c-2.9,0-5.2,2.3-5.2,5.2v25.4c0,2.9,2.3,5.2,5.2,5.2h19.8v12.2c0,2.1,1.7,3.8,3.8,3.8c2.1,0,3.8-1.7,3.8-3.8l0,0V56.4h19.9
	c2.9,0,5.2-2.3,5.2-5.2V25.7C258.9,22.9,256.6,20.5,253.7,20.5 M226.2,48.9h-16.6c-0.1,0-0.8,0-0.8-0.9v-19c0-0.2,0.1-0.4,0.2-0.6
	c0.2-0.2,0.4-0.2,0.6-0.2h16.5L226.2,48.9z M251.1,47.9c0,0.3-0.1,0.5-0.2,0.8c-0.2,0.2-0.4,0.2-0.6,0.2h-16.5V28h16.4
	c0.3,0,0.5,0.1,0.7,0.2c0.1,0.2,0.2,0.3,0.2,0.5v0.1v18.9L251.1,47.9z"/>
<path class="st0" d="M397.2,63.2L397.2,63.2c-6.9-3-13.5-6.7-19.8-11h12.4c2.8,0,5.1-2.3,5.1-5.1v-0.4v-0.4c0-2.4,0-14.3,0-14.3
	c0-2.8-2.2-5-4.9-5.1h-17v-3.5h22.1c2,0,3.7-1.5,3.7-3.5c0,0,0,0,0-0.1c0-2-1.7-3.7-3.8-3.7H373v-0.7c0-2.1-1.7-3.7-3.7-3.7
	s-3.7,1.7-3.7,3.7v0.7h-22.1c-2-0.1-3.7,1.4-3.8,3.5c-0.1,2,1.4,3.7,3.5,3.8c0.1,0,0.3,0,0.4,0h22.1V27h-17c-3.3,0.1-5.1,2-5.1,5.2
	V47c0,0,0,0.1,0,0.1c0,2.8,2.3,5.1,5.1,5.1h12.3c-7,5.2-19.9,10.7-20,10.7c-1.2,0.7-2,1.9-2,3.4c0,2.1,1.7,3.7,3.7,3.7l1-0.1
	c0.2,0,13.8-4.1,22-13c0,1.1,0,12.4,0,12.4c0,2.1,1.7,3.7,3.7,3.7s3.7-1.7,3.7-3.7l0,0c0,0,0-10.1,0-12.7c6,6.7,20.6,13.3,20.8,13.4
	c0.9,0.4,1.8,0.5,2.8,0.6c2-0.1,3.6-1.8,3.5-3.8c0,0,0,0,0-0.1C400,65.2,398.6,63.9,397.2,63.2 M365.3,46h-14.8c0-0.4,0-3.3,0-3.7
	h14.9C365.4,42.7,365.4,45.6,365.3,46 M365.4,36.5h-14.9c0-0.4,0-3.3,0-3.7h14.9C365.4,33.2,365.4,36.1,365.4,36.5 M373.3,32.8h14.9
	c0,0.4,0,3.3,0,3.7h-14.9C373.2,36.1,373.2,33.2,373.3,32.8 M373.2,45.9c0-0.4,0-3.3,0-3.7h14.9c0,0.4,0,3.3,0,3.7H373.2z"/>
<path class="st0" d="M514.7,30.5h-0.5h-0.2h-0.2c-2.7,0.1-4.9,2.4-4.8,5.1v17.8c-0.3,7.4-3.5,11.8-4.2,12.6l-0.1,0.2l-0.1,0.1
	c-0.3,0.6-0.6,1.3-0.6,2.1c0,2,1.6,3.6,3.6,3.6c1.1,0,2.2-0.5,2.9-1.4c4-4.6,6.2-10.6,6.3-16.7v-0.1c0-1.6,0-3.1,0-4.4
	c0-6.9-0.1-10.5-0.1-11.4h6.3v27.4c0,3,1.9,6.1,5.4,6.1h4.5c0.1,0,3.8,0.3,5.8-6.4l0.1-0.6l0.2-1.4v-0.2c0.1-0.8,0.2-2.3-2.5-3.2
	c-1.4-0.5-3,0.2-3.5,1.7c0,0.1-0.1,0.2-0.1,0.2l-0.3,1.1c-0.3,1-0.5,1.4-1,1.4h-1.4V35.6c0-0.1-0.1-4.8-5-5.1L514.7,30.5"/>
<path class="st0" d="M515.4,15.5v4.4h-6.8c-2-0.1-3.8,1.4-3.9,3.4c-0.1,2,1.4,3.8,3.4,3.9c0.2,0,0.4,0,0.5,0h23.1
	c2,0.1,3.8-1.4,3.9-3.4c0.1-2-1.4-3.8-3.4-3.9c-0.2,0-0.4,0-0.5,0h-9c0-0.4,0-4.4,0-4.4c0-2-1.6-3.6-3.7-3.6
	C517.1,11.8,515.4,13.5,515.4,15.5"/>
<path class="st0" d="M504,39.8h-0.4V23.4c0-2-1.6-3.7-3.6-3.7h-6c0.1-0.5,0.6-2.5,0.6-2.5l0.2-0.6c0.1-0.3,0.1-0.6,0.1-0.9
	c0-0.7-0.2-1.3-0.5-1.9c-1-1.7-3.2-2.3-4.9-1.3c0,0,0,0-0.1,0c-0.8,0.5-1.4,1.3-1.6,2.2c0,0-1.1,4.6-1.2,4.9h-5.1h-0.2
	c-2,0-3.7,1.7-3.6,3.7v16.5c-2-0.1-3.7,1.4-3.8,3.4s1.4,3.7,3.4,3.8c0.1,0,0.3,0,0.4,0c0,0.4,0,2.1,0,2.1v0.4v0.1
	c-0.1,2.9-0.2,5.5-0.5,7.9v0.4c-0.8,7-2.2,9.8-2.2,9.9c-0.1,0.5-0.2,1-0.2,1.5c0,2,1.6,3.6,3.6,3.6c1.4,0,2.7-0.8,3.3-2.1
	c0.2-0.3,1.8-3.3,2.8-12v-0.5c0.3-2.7,0.5-5.6,0.6-8.7c0,0,0.1-1.8,0.1-2.5h2.7v9c0,2,1.2,3.4,2.9,3.4c1.7-0.1,3.1-1.5,3-3.2
	c0,0,0-0.1,0-0.1v-9h2.8v17.3c0,0.3-0.1,0.5-0.3,0.7c-0.8,0.6-2.7,0.3-3.5,0.2h-0.4c-1.8,0-3.3,1.5-3.3,3.3c0,0.1,0,0.1,0,0.2
	c-0.1,1,0.4,2,1.2,2.6l0.2,0.1c0.7,0.5,1.6,0.8,2.5,0.8c4.7,0.2,7.3-0.4,8.8-1.9c1.3-1.3,2-3.4,2-6.8V47h0.4c2,0,3.6-1.6,3.6-3.6
	C507.7,41.4,506.1,39.8,504,39.8 M496.3,39.8h-3.5c0.5-0.6,0.8-1.3,0.8-2.1c0-0.2,0-0.4,0-0.6l-0.8-5.1c-0.1-0.9-0.6-1.6-1.3-2.1
	c-0.7-0.5-1.5-0.6-2.2-0.5c-1.5,0.3-2.6,1.7-2.5,3.3c0,0.2,0,0.4,0,0.6l0.8,5.1c0.1,0.5,0.3,1,0.6,1.5c-0.6,0-2.8,0-3.2,0V27.2h11.2
	L496.3,39.8z"/>
<path class="st0" d="M598.9,83c-0.7,1-1,2.2-0.9,3.4v19.8c-0.8-1.4-11.5-19.4-11.5-19.4c-2-3.3-4-5-6-5c-1.3-0.1-2.7,0.3-3.7,1.3
	c-0.7,0.8-1,2.3-1,4.6v26.6c-0.1,1.2,0.2,2.4,0.9,3.5c0.7,0.8,1.8,1.2,2.9,1.1c1.1,0.1,2.2-0.3,2.9-1.1c0.7-1,1.1-2.2,1-3.4V94.6
	l12,20.2c0.7,1.3,1.6,2.5,2.8,3.4c1,0.5,2.1,0.8,3.2,0.7c1.2,0.1,2.4-0.4,3.3-1.3c0.6-0.9,0.9-2.3,0.9-4.4V86.4
	c0.1-1.2-0.2-2.4-0.9-3.5C603.1,81.5,600.6,81.5,598.9,83"/>
<path class="st0" d="M512.4,82.3c-1.7,0-3,0.4-3.7,1.3s-1,2.3-1,4.6v24.4c0,2.2,0.3,3.7,1,4.6c1,0.9,2.3,1.4,3.7,1.2h18.8
	c1.1,0.1,2.2-0.2,3.1-0.9c0.8-0.7,1.2-1.6,1.1-2.6c0.1-1-0.3-2-1.1-2.6c-0.9-0.6-2-0.9-3.1-0.9h-15.8v-8.8h13.4
	c1.1,0.1,2.2-0.2,3.1-0.8c0.7-0.6,1.2-1.5,1.1-2.4c0.1-1-0.3-1.9-1.1-2.5c-0.9-0.6-2-0.9-3.1-0.8h-13.4V89h14.9
	c1.1,0.1,2.2-0.2,3.1-0.8c0.7-0.6,1.1-1.5,1.1-2.4c0.1-1-0.4-1.9-1.1-2.5c-0.9-0.6-2-0.9-3.1-0.9"/>
<path class="st0" d="M477.3,82.4c-1-0.1-2,0.2-2.8,0.9c-0.7,0.7-1.1,1.6-1,2.6c-0.1,0.9,0.3,1.9,1,2.5c0.8,0.6,1.8,0.9,2.9,0.8h7.2
	v25.6c-0.1,1.1,0.3,2.2,1,3.1c0.8,0.7,1.9,1.1,2.9,1.1c1.1,0.1,2.1-0.3,2.9-1.1c0.7-0.9,1.1-2,1-3.1V89.2h7.2c1,0.1,2-0.2,2.8-0.9
	c0.7-0.6,1.1-1.6,1-2.5c0.1-1-0.3-1.9-1-2.6c-0.8-0.6-1.8-0.9-2.8-0.8"/>
<path class="st0" d="M380.4,82.3c-1.8,0-3,0.4-3.7,1.3s-1,2.3-1,4.6v24.4c0,2.2,0.3,3.7,1,4.6c1,0.9,2.3,1.4,3.7,1.2h18.8
	c1.1,0.1,2.2-0.2,3.1-0.9c0.7-0.7,1.2-1.6,1.1-2.6c0.1-1-0.3-2-1.1-2.6c-0.9-0.6-2-1-3.1-0.9h-15.8v-8.8h13.3c1.1,0.1,2.2-0.2,3-0.8
	c0.7-0.6,1.2-1.5,1.1-2.4c0.1-1-0.3-1.9-1.1-2.5c-0.9-0.6-2-0.9-3.1-0.8h-13.3V89h14.9c1.1,0.1,2.2-0.2,3.1-0.8
	c0.7-0.6,1.1-1.5,1.1-2.4c0.1-1-0.3-1.9-1.1-2.5c-0.9-0.6-2-0.9-3.1-0.9"/>
<path class="st0" d="M313.4,83c-0.7,1-1,2.2-0.9,3.4v19.8c-0.8-1.4-11.5-19.4-11.5-19.4c-2-3.3-4-5-6-5c-1.3-0.1-2.7,0.3-3.7,1.3
	c-0.7,0.8-1,2.3-1,4.6v26.6c-0.1,1.2,0.2,2.4,0.9,3.5c1.6,1.5,4.2,1.5,5.8,0c0.7-1,1.1-2.2,1-3.4V94.6c0.8,1.4,12,20.2,12,20.2
	c0.7,1.3,1.6,2.5,2.8,3.4c1,0.5,2.1,0.8,3.2,0.7c1.2,0.1,2.5-0.4,3.3-1.3c0.6-0.9,0.9-2.3,0.9-4.4V86.4c0.1-1.2-0.2-2.4-0.9-3.5
	C317.6,81.4,315.1,81.4,313.4,83"/>
<path class="st0" d="M276.3,82.9c-0.7,0.9-1.1,2-1,3.1v28.8c-0.1,1.1,0.3,2.2,1,3.1c0.8,0.7,1.8,1.1,2.9,1.1
	c1.1,0.1,2.2-0.3,2.9-1.1c0.7-0.9,1.1-2,1-3.1V86c0.1-1.1-0.3-2.2-1-3.1C280.4,81.5,278,81.5,276.3,82.9"/>
<path class="st0" d="M261.3,82.9c-0.7,0.9-1.1,2-1,3.1v9.6h-14.2V86c0.1-1.1-0.3-2.2-1-3.1c-1.7-1.4-4.1-1.4-5.8,0
	c-0.7,0.9-1.1,2-1,3.1v28.8c-0.1,1.1,0.3,2.2,1,3.1c0.8,0.7,1.8,1.1,2.9,1.1c1.1,0.1,2.2-0.3,2.9-1.1c0.7-0.9,1.1-2,1-3.1v-12.2
	h14.3v12.1c-0.1,1.1,0.3,2.2,1,3.1c0.8,0.7,1.8,1.1,2.9,1.1c1.1,0.1,2.2-0.3,3-1c0.7-0.9,1.1-2,1-3.1V86c0.1-1.1-0.3-2.2-1-3.1
	C265.6,81.5,263.1,81.5,261.3,82.9"/>
<path class="st0" d="M205.5,86.5c-3,3.4-4.6,8.3-4.6,14.4c0,5.7,1.5,10.3,4.5,13.5s7.2,5,12.4,5c2.2,0,4.5-0.3,6.6-1
	c2-0.7,3.8-1.8,5.4-3.2c1-0.9,1.8-1.9,2.5-3c0.6-0.9,0.9-2,1-3.1c0-1-0.4-1.9-1.1-2.5c-0.7-0.7-1.7-1-2.7-1c-0.7,0-1.3,0.2-1.9,0.5
	c-0.7,0.4-1.3,1-1.8,1.7l-0.6,1l-0.8,1.2c-0.7,0.8-1.6,1.4-2.5,1.8c-1.1,0.4-2.3,0.6-3.6,0.6c-2.7,0.2-5.3-1-7-3.1
	c-1.6-2.1-2.5-5-2.5-8.9s0.8-6.7,2.4-8.8c1.6-2.1,4.1-3.2,6.6-3.2c1.2,0,2.4,0.2,3.6,0.7c1,0.4,2,1.1,2.7,2l0.7,1
	c0.6,1.1,1.5,1.9,2.6,2.4c0.6,0.3,1.2,0.4,1.8,0.4c1,0.1,2-0.3,2.7-1c0.7-0.7,1-1.7,1-2.7c0-1.1-0.4-2.2-1-3.2
	c-0.7-1.1-1.6-2.1-2.7-2.9c-1.5-1.2-3.3-2.2-5.1-2.8c-1.9-0.6-3.9-0.9-5.9-0.9c-5.5,0-9.8,1.8-12.8,5.2"/>
<path class="st0" d="M439.3,114.5l-0.3-1l-10-27.8c-0.3-1.2-1-2.3-2-3.2c-1.1-0.5-2.3-0.8-3.5-0.7c-1.3-0.1-2.5,0.1-3.6,0.7
	c-1,0.8-1.7,2-2,3.2l-9.9,27.7l-0.3,1l-0.1,1c0,0.9,0.4,1.9,1.1,2.5c1.5,1.2,3.5,1.3,5.1,0.2c0.7-0.5,1.2-1.3,1.4-2.1l1.6-4.9h13.5
	c0.1,0.3,1.6,4.9,1.6,4.9c0.2,0.8,0.7,1.6,1.4,2.1c0.7,0.5,1.5,0.7,2.4,0.7c1,0,2-0.3,2.8-0.9c0.7-0.6,1.1-1.5,1.1-2.5 M418.7,104.6
	c0.2-0.6,4.2-13,4.6-14.2c0.4,1.2,4.5,13.6,4.6,14.2H418.7z"/>
<path class="st0" d="M446.7,84.3c-2.4,2-3.8,5-3.6,8.1c0,3,0.8,5.4,2.5,7s4.8,2.9,9.5,4l0.5,0.1c5.8,1.3,8.8,3,8.8,5
	c0.1,1.3-0.6,2.5-1.6,3.2c-1.5,0.8-3.3,1.2-5,1.1c-1.2,0-2.5-0.2-3.6-0.6c-1-0.4-1.9-1-2.5-1.9l-1-1.4c-1.1-1.8-2.4-2.6-3.8-2.6
	c-1,0-1.9,0.4-2.6,1.1c-0.7,0.8-1,1.7-1,2.8c0,1.2,0.4,2.3,1,3.3c0.7,1.1,1.6,2.1,2.6,2.8c1.5,1.1,3.2,1.9,5,2.5c2,0.5,4,0.8,6,0.8
	c4.4,0,7.8-1.1,10.4-3.2c3.8-3.5,4.9-9,2.7-13.6c-0.8-1.4-1.9-2.6-3.4-3.4c-1-0.5-2-1-3.1-1.3c-1.2-0.4-3.1-0.9-5.6-1.6l-2.3-0.6
	c-3.9-0.9-5.9-2.3-5.9-4c-0.1-1.2,0.5-2.3,1.5-3c1.3-0.8,2.8-1.2,4.3-1.1c1.1,0,2.3,0.2,3.4,0.5c0.9,0.3,1.7,0.9,2.3,1.6l0.7,0.9
	c1.2,1.6,2.5,2.4,3.9,2.4c0.9,0,1.9-0.3,2.5-0.9c0.7-0.7,1-1.6,1-2.5c-0.1-1.1-0.4-2.1-1-3c-0.7-1.1-1.5-2-2.5-2.7
	c-1.3-0.9-2.8-1.7-4.4-2.1c-1.8-0.5-3.6-0.7-5.4-0.7C452.5,81.4,449.1,82.4,446.7,84.3"/>
<path class="st0" d="M569,111.8c-0.1-0.7-0.2-1.4-0.2-2.1l-0.2-2.6c-0.1-1.4-0.5-2.8-1.3-4c-0.7-0.9-1.6-1.6-2.7-2
	c1.5-0.5,2.7-1.5,3.6-2.9c1-1.7,1.5-3.6,1.4-5.6c0-3.5-1-6.1-2.9-7.8c-1.9-1.7-4.9-2.6-8.8-2.6h-12.8c-1.7,0-3,0.4-3.7,1.3
	s-1,2.3-1,4.6v26.6c-0.1,1.1,0.3,2.2,1,3.1c0.8,0.8,1.8,1.1,2.9,1.1c1.1,0.1,2.2-0.3,2.9-1.1c0.7-0.9,1.1-2,1-3.1v-10.1h7.5
	c1.3-0.1,2.6,0.2,3.8,0.9c0.7,0.6,1.1,2.4,1.3,5.1c0.2,3.7,0.7,5.9,1.4,6.9c0.9,1,2.2,1.5,3.5,1.4c1,0,2-0.3,2.8-0.9
	c0.7-0.7,1.1-1.6,1.1-2.6c0-0.6-0.1-1.2-0.3-1.7 M560.7,96.9c-1.2,0.8-2.6,1.2-4,1.1h-8.4v-9h8.7c1.3-0.1,2.6,0.3,3.7,1.1
	c0.9,0.9,1.3,2.1,1.2,3.4C562,94.7,561.6,96,560.7,96.9"/>
<path class="st0" d="M356.3,114.5l-0.3-1l-10-27.8c-0.3-1.2-1-2.3-2-3.2c-1.1-0.5-2.3-0.8-3.5-0.7c-1.3-0.1-2.5,0.1-3.6,0.7
	c-1,0.8-1.7,2-2,3.2l-9.9,27.7l-0.3,1l-0.1,1c0,0.9,0.4,1.9,1.1,2.5c1.5,1.2,3.5,1.3,5.1,0.2c0.7-0.5,1.2-1.3,1.4-2.1l1.6-4.9h13.5
	l1.6,4.9c0.2,0.8,0.7,1.6,1.4,2.1c0.7,0.5,1.5,0.7,2.4,0.7c1,0,2-0.3,2.8-0.9c0.7-0.6,1.1-1.5,1.1-2.5 M335.6,104.6
	c0.2-0.6,4.2-13,4.6-14.2c0.4,1.2,4.5,13.6,4.6,14.2H335.6z"/>
</svg>
